<mxfile host="65bd71144e">
    <diagram id="OfImjJAIMk0K5Xj9QI4j" name="Options">
        <mxGraphModel dx="1104" dy="924" grid="1" gridSize="10" guides="1" tooltips="1" connect="1" arrows="1" fold="1" page="1" pageScale="1" pageWidth="850" pageHeight="1100" math="0" shadow="0">
            <root>
                <mxCell id="0"/>
                <mxCell id="1" parent="0"/>
                <mxCell id="2" value="Self-managed" style="points=[[0,0],[0.25,0],[0.5,0],[0.75,0],[1,0],[1,0.25],[1,0.5],[1,0.75],[1,1],[0.75,1],[0.5,1],[0.25,1],[0,1],[0,0.75],[0,0.5],[0,0.25]];outlineConnect=0;gradientColor=none;html=1;whiteSpace=wrap;fontSize=12;fontStyle=0;container=1;pointerEvents=0;collapsible=0;recursiveResize=0;shape=mxgraph.aws4.group;grIcon=mxgraph.aws4.group_account;strokeColor=#CD2264;fillColor=none;verticalAlign=top;align=left;spacingLeft=30;fontColor=#CD2264;dashed=0;" parent="1" vertex="1">
                    <mxGeometry x="40" y="40" width="430" height="210" as="geometry"/>
                </mxCell>
                <mxCell id="3" value="Control Plane" style="sketch=0;points=[[0,0,0],[0.25,0,0],[0.5,0,0],[0.75,0,0],[1,0,0],[0,1,0],[0.25,1,0],[0.5,1,0],[0.75,1,0],[1,1,0],[0,0.25,0],[0,0.5,0],[0,0.75,0],[1,0.25,0],[1,0.5,0],[1,0.75,0]];outlineConnect=0;fontColor=#232F3E;gradientColor=#F78E04;gradientDirection=north;fillColor=#D05C17;strokeColor=#ffffff;dashed=0;verticalLabelPosition=bottom;verticalAlign=top;align=center;html=1;fontSize=12;fontStyle=0;aspect=fixed;shape=mxgraph.aws4.resourceIcon;resIcon=mxgraph.aws4.ec2;" parent="2" vertex="1">
                    <mxGeometry x="30" y="61" width="78" height="78" as="geometry"/>
                </mxCell>
                <mxCell id="4" value="Node" style="sketch=0;points=[[0,0,0],[0.25,0,0],[0.5,0,0],[0.75,0,0],[1,0,0],[0,1,0],[0.25,1,0],[0.5,1,0],[0.75,1,0],[1,1,0],[0,0.25,0],[0,0.5,0],[0,0.75,0],[1,0.25,0],[1,0.5,0],[1,0.75,0]];outlineConnect=0;fontColor=#232F3E;gradientColor=#F78E04;gradientDirection=north;fillColor=#D05C17;strokeColor=#ffffff;dashed=0;verticalLabelPosition=bottom;verticalAlign=top;align=center;html=1;fontSize=12;fontStyle=0;aspect=fixed;shape=mxgraph.aws4.resourceIcon;resIcon=mxgraph.aws4.ec2;" parent="2" vertex="1">
                    <mxGeometry x="241" y="100" width="78" height="78" as="geometry"/>
                </mxCell>
                <mxCell id="6" value="Node" style="sketch=0;points=[[0,0,0],[0.25,0,0],[0.5,0,0],[0.75,0,0],[1,0,0],[0,1,0],[0.25,1,0],[0.5,1,0],[0.75,1,0],[1,1,0],[0,0.25,0],[0,0.5,0],[0,0.75,0],[1,0.25,0],[1,0.5,0],[1,0.75,0]];outlineConnect=0;fontColor=#232F3E;gradientColor=#F78E04;gradientDirection=north;fillColor=#D05C17;strokeColor=#ffffff;dashed=0;verticalLabelPosition=bottom;verticalAlign=top;align=center;html=1;fontSize=12;fontStyle=0;aspect=fixed;shape=mxgraph.aws4.resourceIcon;resIcon=mxgraph.aws4.ec2;" parent="2" vertex="1">
                    <mxGeometry x="330" y="30" width="78" height="78" as="geometry"/>
                </mxCell>
                <mxCell id="5" value="Node" style="sketch=0;points=[[0,0,0],[0.25,0,0],[0.5,0,0],[0.75,0,0],[1,0,0],[0,1,0],[0.25,1,0],[0.5,1,0],[0.75,1,0],[1,1,0],[0,0.25,0],[0,0.5,0],[0,0.75,0],[1,0.25,0],[1,0.5,0],[1,0.75,0]];outlineConnect=0;fontColor=#232F3E;gradientColor=#F78E04;gradientDirection=north;fillColor=#D05C17;strokeColor=#ffffff;dashed=0;verticalLabelPosition=bottom;verticalAlign=top;align=center;html=1;fontSize=12;fontStyle=0;aspect=fixed;shape=mxgraph.aws4.resourceIcon;resIcon=mxgraph.aws4.ec2;" parent="1" vertex="1">
                    <mxGeometry x="190" y="70" width="78" height="78" as="geometry"/>
                </mxCell>
                <mxCell id="7" value="Partially Managed" style="points=[[0,0],[0.25,0],[0.5,0],[0.75,0],[1,0],[1,0.25],[1,0.5],[1,0.75],[1,1],[0.75,1],[0.5,1],[0.25,1],[0,1],[0,0.75],[0,0.5],[0,0.25]];outlineConnect=0;gradientColor=none;html=1;whiteSpace=wrap;fontSize=12;fontStyle=0;container=1;pointerEvents=0;collapsible=0;recursiveResize=0;shape=mxgraph.aws4.group;grIcon=mxgraph.aws4.group_account;strokeColor=#CD2264;fillColor=none;verticalAlign=top;align=left;spacingLeft=30;fontColor=#CD2264;dashed=0;" parent="1" vertex="1">
                    <mxGeometry x="40" y="280" width="480" height="360" as="geometry"/>
                </mxCell>
                <mxCell id="8" value="EKS Control Plane" style="sketch=0;points=[[0,0,0],[0.25,0,0],[0.5,0,0],[0.75,0,0],[1,0,0],[0,1,0],[0.25,1,0],[0.5,1,0],[0.75,1,0],[1,1,0],[0,0.25,0],[0,0.5,0],[0,0.75,0],[1,0.25,0],[1,0.5,0],[1,0.75,0]];outlineConnect=0;fontColor=#232F3E;gradientColor=#F78E04;gradientDirection=north;fillColor=#D05C17;strokeColor=#ffffff;dashed=0;verticalLabelPosition=bottom;verticalAlign=top;align=center;html=1;fontSize=12;fontStyle=0;aspect=fixed;shape=mxgraph.aws4.resourceIcon;resIcon=mxgraph.aws4.eks;" parent="7" vertex="1">
                    <mxGeometry x="30" y="150" width="78" height="78" as="geometry"/>
                </mxCell>
                <mxCell id="12" value="Fargate" style="sketch=0;points=[[0,0,0],[0.25,0,0],[0.5,0,0],[0.75,0,0],[1,0,0],[0,1,0],[0.25,1,0],[0.5,1,0],[0.75,1,0],[1,1,0],[0,0.25,0],[0,0.5,0],[0,0.75,0],[1,0.25,0],[1,0.5,0],[1,0.75,0]];outlineConnect=0;fontColor=#232F3E;gradientColor=#F78E04;gradientDirection=north;fillColor=#D05C17;strokeColor=#ffffff;dashed=0;verticalLabelPosition=bottom;verticalAlign=top;align=center;html=1;fontSize=12;fontStyle=0;aspect=fixed;shape=mxgraph.aws4.resourceIcon;resIcon=mxgraph.aws4.fargate;" parent="7" vertex="1">
                    <mxGeometry x="200" y="80" width="78" height="78" as="geometry"/>
                </mxCell>
                <mxCell id="13" value="Karpenter" style="shape=image;verticalLabelPosition=bottom;labelBackgroundColor=default;verticalAlign=top;aspect=fixed;imageAspect=0;image=data:image/png,iVBORw0KGgoAAAANSUhEUgAAANwAAADcCAYAAAAbWs+BAAABYGlDQ1BJQ0MgUHJvZmlsZQAAKJF1kD9LQmEUxh/LMETIocChwaChwULNoWgQU4igQSz7Bw3X600D/7zceyPcGqKhqQvNLTr0CWppkL5AQdBQBE19AAOXktvzaqUWvS8P58fDOYeHAwx4FCEKTgDFkqmnlhb9m1vbftcr3PBRCwgoqiFiyeQKW/Bd+1/zAQ5Z76flrrF6qFFrxE68w/nT2/Wdib/9fc+d1QyV9YOKqEI3AUeQnDwwheRD8qjOUOQzybkOX0jOdPi63bOWipPvyF41r2TJL+RApsfP9XCxsK9+ZZDpPVopvcrqo8aRgIYCvx9pRDCPEJXAxj8zkfZMHGUIVKBjDznkYXI6Rkdwj0ZeRgkqZhAghxGkwvLWv2/Y9co1YK4JDFpdL8MbXB0z5mPXmzwHRo6Ayxuh6MrPZR1Np7E7G+6wJwoMPdv22xTgsoCWZdvvVdtuVbn/CahXPgECnmRsJgzrWwAAAGJlWElmTU0AKgAAAAgAAgESAAMAAAABAAEAAIdpAAQAAAABAAAAJgAAAAAAA5KGAAcAAAASAAAAUKACAAQAAAABAAAA3KADAAQAAAABAAAA3AAAAABBU0NJSQAAAFNjcmVlbnNob3T7Bxt/AAACPWlUWHRYTUw6Y29tLmFkb2JlLnhtcAAAAAAAPHg6eG1wbWV0YSB4bWxuczp4PSJhZG9iZTpuczptZXRhLyIgeDp4bXB0az0iWE1QIENvcmUgNi4wLjAiPgogICA8cmRmOlJERiB4bWxuczpyZGY9Imh0dHA6Ly93d3cudzMub3JnLzE5OTkvMDIvMjItcmRmLXN5bnRheC1ucyMiPgogICAgICA8cmRmOkRlc2NyaXB0aW9uIHJkZjphYm91dD0iIgogICAgICAgICAgICB4bWxuczpleGlmPSJodHRwOi8vbnMuYWRvYmUuY29tL2V4aWYvMS4wLyIKICAgICAgICAgICAgeG1sbnM6dGlmZj0iaHR0cDovL25zLmFkb2JlLmNvbS90aWZmLzEuMC8iPgogICAgICAgICA8ZXhpZjpQaXhlbFlEaW1lbnNpb24+MjUwPC9leGlmOlBpeGVsWURpbWVuc2lvbj4KICAgICAgICAgPGV4aWY6VXNlckNvbW1lbnQ+U2NyZWVuc2hvdDwvZXhpZjpVc2VyQ29tbWVudD4KICAgICAgICAgPGV4aWY6UGl4ZWxYRGltZW5zaW9uPjI4NTwvZXhpZjpQaXhlbFhEaW1lbnNpb24+CiAgICAgICAgIDx0aWZmOk9yaWVudGF0aW9uPjE8L3RpZmY6T3JpZW50YXRpb24+CiAgICAgIDwvcmRmOkRlc2NyaXB0aW9uPgogICA8L3JkZjpSREY+CjwveDp4bXBtZXRhPgq/rAqUAAAXWklEQVR4Ae2dCXRVRZrHP3bCloWwJYQQwg4BQtiRpUFsaEUEFBpt7LbbGaf12E7bc+w53faMbeuoZ+RMN7aj2MoRbLCRQXBBkH0Pa0JYk7CEhLDGkLCGnanvaSQJL7x3695bdZf/d8477717b9VX9av7f/e+ulVf1ZgwZdYtgoEACCghUFOJFzgBARAIEIDgcCKAgEICEJxC2HAFAhAczgEQUEgAglMIG65AAILDOQACCglAcAphwxUIQHA4B0BAIQEITiFsuAIBCA7nAAgoJADBKYQNVyAAweEcAAGFBCA4hbDhCgQgOJwDIKCQAASnEDZcgQAEh3MABBQSgOAUwoYrEIDgcA6AgEICEJxC2HAFAhAczgEQUEgAglMIG65AAILDOQACCglAcAphwxUIQHA4B0BAIQEITiFsuAIBCA7nAAgoJADBKYQNVyAAweEcAAGFBCA4hbDhCgQgOJwDIKCQAASnEDZcgQAEh3MABBQSgOAUwoYrEIDgcA6AgEICEJxC2HAFAhAczgEQUEgAglMIG65AoDYQ3CYQHxdJrcUrPl684ppQi+aNKaJ+HYqIuP2qU1v/b9TNm7eo7PI1Kiu7RpcvXw98Pnf+ChUWltJRfh07G3i/cuX67crhkyMI+FZwLK4OybHUPrnpd++xjmiQcApRs2YNatigbuBV8fi0XvEVv1L+0RLKzjlNBw8VU17+Gco7cqbSfnxRT6DGhCmzbql3q8cjn6SDB7alwQPaUvduLfUUQqPXQnHlS9+aT5vF60h+icaS+Ne1LwSXnNSU7hmUFBBb05gG/m3tCjXfnlEYEN+adYcqbMVHuwl4WnAstFEjO9CoER3t5uja/A/lFdPylQdo+apc19bBTQX3pODatY2h++7tCKEZOBMhPAOwTBzqKcFFR0XQA2O6iFdXqu2A3kQT7aIt6b79p+jLpftpy7YCbWXwsmPP9FKWC61ZbEMvt5ftdevapQXxa2P6EfpyyX7KPVhku08/OXD9FY6flz0xtS+l9qzcJe6nRrSzrjNnb6PF4ooHs4aAq69wfdMS6OeP96XmzRpZQwO53EGA+fKPGgvv+vWbd+zHBmMEXCu4h8Z2o6lT0ozVFkdLEfjhvZ0ovlUkzfxoG+UX4PmdFMTvEukfpyRR+qlTekNsEtzMJOGBAi/+diQN6p9oJhvfp3Wd4J57+h56aGx33zecDgAx0Q3oN88NCzxy0eHfCz5ddUv57vSJhF5I/afdUz8fQI0b1aMFi3brL4zLSuAawX04YzI1blxPGd4LF65Qdm4RnSm59O3rDL+Xff/9vBidr9oaNaxLjcSJXvW9odie0q2VeKkbH/ropFTisZl4XmfsLHDFY4FXXxpNnTs2N1YziaNZZBlZx2j9xjzK2HlMIge9SaIi61Naamvq37dN4F1Faf7w8te0L/uUClee8OF4wT39z4No5PD2tsEuF1nmzuO0IT2PeK6ZF6xZbCMhuviA8HpXmbZjZf14zt2Lf1xKhzH1JyysjhacnV3/fKJ89XU2fbUsm86I20Uv2yAxHelHP+xMXTrZc5fAjwpeeWNl4HbbyxytqFutLinjX7IiI6vz4Ifaz4irmx22bGUuvft+Oq3flBeYNW2HDyflybPAV609SCWlZYFBApHi1tNKi4qMoFgxpC59S76V2XoyL0cKjkc2PPfMEOLOACtt0+YjNOODzbR0eQ6dPXfZyqxdkddhMRVnzfpDgZAMPOO9gQgdYZUltI6iWmIm+p59J63K0pP5OFJw/KytfTvrQh6cF50h09/eQPMX7qJvii96siHDrdSNGzcDYRd2ZBZSYkKUpcPieNDzyVPnMRrlLo3huAffPOrfyoHIBUdL6aVXl9NmTDepdBocP3GO/uOVZYHb6ko7TH4Z/2B3qi8CL8GCE3CU4L6dz9Y1eEkltu7cdZx+959LRPwOBM+pDt+f/7qePvtyb3W7DW9vI24t+UcTFpyAowTHDWXVSJLVIlbHn15fEfi/Erzq2FpOYPbcHfTya8vLv5p+53Zs1bKJ6Xy8mIFjBMdhEXimthX26We76a/vbrQiK9/kkbX7BE18dLYl9eVhX7jKBUfpGMFxDBIrwiJwZ8CceZnBa4utIQk8/a8LQx4TzgGjR3UiDuIEq0zAEYILRNeyILIWdwT813+vqlxDfDNE4NTp85bdXnLENFhlAo4QnBUNw6G/X3p1WeXa4ZsUAb69nDFzs1Taiok4PCGuchWJEGkXnFVXtxnvb6Zijw/Rqtx09n5btiLXkt5LK35M7a2p2ty1C27gAPMziGfN2W758yS1zeBMb9x7uS3jqKnCDeyXGJhSZCoTDyXWKjjuJOEGMWM8H+vzxfvMZIG0dyGwRAzwNmM8f683Iqp9j1Cr4AYIsbVs0fj7wsh84BH/MPsI8P85Hn9pxlJ7xZlJ7qm0WgU3sF8bUzBXrjmIwbKmCIaXmH/Ubt2SnyfIVzi+0sE0dppEibDkfIWTNY6RaPZ2R9a339IdOlwcmDsoW28WW68UXOWYn7YrXFJijGz7BdLxry4vMghTQ4B586wLWfPjenzBWOkTnBjKJWulZy+b+sWV9evndDztxsz/ZZUBjpzcTtqidnXu2Eyay0YRe6TomwvS6c0kHCIWduwngvR06tCMeG7ZfrGk716x4szK1QfMZOuKtFli9sXkiT2lysqdYzyToEDMPvezaROcmfgaPF5Shz3+WBqNu79bJde8rsGwe9pR396t6fVpqyvts+pLkrgb6N61JSW3a0r16tYOTKLleX6qF1HMOVAUWCecyyNjKd1bQXAy4Mym4ZO0gVhvW8Z4rB93Vau2X/y0XyAQT3V+OQYLC2/thsPVHSK1fcK4FJooXvXr3/nbyKM4Xvj9Yql8ZRPxHENZwcmmky2rE9Np+Q/XOj5SmsXmrQXSaWUT8vAzjnoVyn4lQkMktokOdVjY+59/dig9Njk1qNg4Ey4Xhx5Xaelb5QMFJZhod5V1tNOXFsFxwBlZ27bD3FAjGb/tk8OfZtJD3DZZYc/+cjANHtg2ZFa8uMawIe1CHmfVAfyIgCMuy5iZdpfx58Q0rhIch3njTgrV1qF9+B08/D/LrP3LkwNp+JDksLMx8384bCcVDpS9ytWrV9vSoEUViuSaj1oEJzucS8ftJLdkcwPLGMeIB/pm7Mmf9aNRI4zNI+Moyyot00QY+BYmh/KprKcdvrQILlgHQDiVO3Zc7lYmnLydcMxPH+tDY+4L/V+xallVPyIxMw0qIkjnT9X6ePm7FsFFSIZR45VsvGqPis6RB++Xi+ly4FCxUixmQsPLtr3SCtroDIKzEW64WU+a0DPQ9R/u8RWPyxFLavFAAJV2Uwxk5v/TMub3mJVaBFc/4s5nSuE0Hq/P5jXjwKmTH5YbvXH58nWaNXc78btqk72tjJBse9X1s8ufFsHxaAkZM3MrI+PP7jQcSu4nP+4t7ebt9zYRX+F0mGxb1JVsex11tMOnFsHJVKRU3MKYmZMl49PONBxG7ompfaVd/I+ImMyLk+iy4jMXdbl2tV/XCM5LHSa8wOQ/PdFf+sT5y/9uoA1iqS2ddk7Dkss662uVb9cIrqzsmlV11prPUDHekld1lbW3RETpdRaP15QtC9IZJ+AawRmvmvNS8DAsXopL1vg/2xqxZgLMvQQgOEVtx7MJzAw05hVbV4kYLjB3E4DgFLRfas84euH54dKe3hNRkJev8v4EV2lALkoIwdncWDxx9IVf/4Bq1qgh5en9D7fQ1yIKMswbBCA4G9uxc8fmgStb3bq1pLzMnL2NlizLkUqLRM4kAMHZ1C48TYdvIxtKzmz/8KPttHjpfptKh2x1EYDgbCCfmBAtbiOHU2ST+lK5z56zg75YgvDtUvAcngiCs6GB+MoW27ShVM5//ziDPlu8VyotEjmfAARncRtFRkZIr5cwV6zcuvCLPRaXCNk5iQAEZ3FryAZI+sf8nbRArE0O8zYBCM4B7TtvQRbNX7jLASVBEewmAMHZTTiM/MeP7U59RCBZmPcJQHAOaGN+TveQEF20yQBEDqgKihCCAAQXApCq3RzqjkUH8zYBCM5B7cszwHn6Dsy7BCA4h7Ut/5+Lj2visFKhOFYRgOCsImlRPm0Somj8gykW5YZsnEYAgnNai4jy/GBoslRAWAdWBUWqQgCCqwLEjq9btxcYzpbD57VPjjWcDgmcTQCCs7l99mWfojf/ss7wcr1NYxpIB4e1uUrI3gQBCM4EvFBJj+SX0DQhNl6a+INZWwMrl4ZKU3F/vz4J9PD4HhU34bPLCUBwNjXg6aIL9Oe311Pp2dvRoqdNX2fY2/ix3ciqNecMO0cCywlAcJYjJbpw4Qq99c5GOlplAflcsUb2oi+MTb3hWPwPP5RCsrPGbagesjRBAIIzAS9Y0hs3bxHHjuT/bsHso4930ImT54LtqnZbNxEXZcojqdXuxw73EIDgLG6rbCG07RmFd82Vw5QbNV7Kqn/fNkaT4XiHEYDgNDQIr5P9yadZhj0/MqEHRYkJrjD3EoDgNLXdvP/LovyCEkPekxJjxK1lL0NpcLCzCEBwGtvjnb+lG/Z+r1j/m0eiwNxJAILT2G4HDn1Dc/6RYbgEkyb2pLiWGOBsGJwDEkBwmhvh08/3EAvPiDVv1oh+PAm3lkaYOeVYCM4BLcERlo3a4AFt6f7RXYwmw/GaCUBwmhuA3fMDcZlbS14bnCM8w9xDAIJzSFvxreW+/cEflldXRA6jjl7L6ug4czsE56B2mTPPeAdKas94DHB2UBuGKgoEF4qQwv3ZuUU095NMwx75Kte2TbThdEigngAEp575XT0uWLSbdu05cddjgu0cOqRdsM3Y5jACEJzDGoSL84mIxGzUholoX7VrozmNclN9PFpINfEw/O3POU281oAR4zGWGGdphJieYyG4MLjnHAz/wfQRg+Mjq3PPaw3s3nuyut1Bt0dGyq1HFzQzbLSFAAQXBtaCo+EPMs47ciaMHMM7ZL7BGQVF31wML2McpY0ABBcG+i3bCujkqfMhj8wRvYzrN+WFPC7cA/aK53K8sk44tnlrAZ07dzmcQ3GMRgJaBHf+/BXDVY6QXCvbsKMgCa5evSEib60NsqfyJo5hcv36zcobTX7jDpRQouP/fDyTXKXVr1dbpTvP+NIiuDMllwwDjBVh43Qa3yo++cz8oLO5c8TQrGd/s4g4cJAdxqJ79/104omrVW3p8hx65Y0VYV2Bq6Y18z0ioo6Z5L5Nq+VnigWXaPBBbROxQH2dOrXo2rUb2hqrpKSMXntzFbVLakrJSTF0TVzNWIhGJ5LKVGD5qgPEr7TU1hQT3YCioyOIxabrNrIBBCfTjKRJcLdDxxkpNQdHDee/lJE8ZY49nFdM/NJhOzLvHi9FVZkaaLzFV1VHO/zouaU8Y/yWkivPgoM5g0DLFo2dURCXlUKP4CT+wzHXIYPbuQyvN4vLYfviWmHGuUzrukxwSVQPvWMy7WxpGh5GBpMjoEVwwXrbwik+d0UP6p8YzqE4xiYC3DvZR3TcwOQIaBFcSWmZ4Tge5dUbKEILwPQRGDo4iTCETJ6/FsFxcbftOCpV6rRe8TQQVzkpdmYT8e386Ps6m83G1+m1CW73HmMDcyu20phRnSp+xWdFBMbc14natI5S5M2bbrQJLvdgEZ06HXp8YjDs3Es2Ylj7YLuwzSYCUVERNHoUrm5m8WoTHBc8a7fxmc3lFR4rFrdohWCo5Thsf+cls5rFNrTdj9cdaBXcnn3yt5V8a/PsLwd7vX0cUb/hQ5JpDP67WdIWWgW3Mf2I4UmWFWvdqUMz+sO/31txEz5bTCA+LhI/bBYy1So4rsfni42tCFq17r16xBHH2odZT4BDNkx/c5z1Gfs4R+2Cy9h5jFauOWiqCSYLwT35s36m8kDiygTG3d+NPnjnkcob8c00Ae2C4xrwVe7ixaumKsP/MZ7/1VCKFr1pMHMEnvrFAHr8sTRzmSB1UAK1uqSMfynoHoUbz4kZ4LVq1aCUbq1MeeWOlJ4pcWLOnJinlm9dbBFThXJR4r5pCfTMU4NsXdqYw0bwy6+mZT5cMNifL95H/fslUru2McF2h72NJ7bySTNcBEZdIiZopm/JDzutXw+Mj2tC4x7oTiOH49mm3eeAYwR3Vczknjsvk1787UhL6swPx/mVmXWM+PHDjsxjdLSw1JK8vZIJr0vQWwyVGzIoiRo3rueVajm6Ho4RHFNicXwsYutPmZRqGTQ+qfg1dUpaIBTCZhGBq1hMgC0uvvj9+6Wya5b5c2JGPHG3adOGxHFh+D1ZhIhIS40nzNpW31o1JkyZdUu927t7fOHXw239H3F379jrVgIXL10NdL5d4vdL12jdxsOUKXrB+QfWKeZIwTGcGW9NpFjxawwDAbMEOA7MVjE7ZYUIwqTbHCu4xo3q0YfvTdbNB/49RGBf9ila8nU2bdLYkeaIxwLB2pSDr2aIX6ZRIzoG241tIGCYQLPYRjRITGDmtfSyxJJgfI6pNkc8+K6u0gdF4NNHfvKR1Hpp1eWJ7SDQv28bmvbaA5SgYW6fY69w5afFLdGls3b9Ybomfo16pJh7MF6eJ95BgHtoR4uJzNwzfkZhp4qjr3AVT4uFX+yhadPXUZnHu/Ar1hmf7Sfw+ss/CkSxtt/Ttx4cf4WrCIIfXO8Sa6Y1FxMhEYi0Ihl8NkOgS6cWgVWPbtywdiGWYGVyleC4ArwuwdoNh6lURP7iIUncmwkDATMEeGAAB7ZV0XvpOsGVgz0kYvtv2HSEbok/eR3bx1LNmjXKd+EdBAwT4A6UQnEHdfTYWcNpjSRwreC4kleuXg/0YGbuOi6GKdVBRCkjLY9j7yDAgZJWrz10x3YrN7hacOUg+DaTZwXsyCgUkcDEGm3iYteiORabKOeD9/AI8HM67rE8bOGy0VU9e0Jw5ZXiiM7ZuacDjxG+EiMKCsQC9zwLge/R69Z11Djt8iLj3WEE+DEUx9qxyzx7Fl64cEUMXs0LvBged67ECOHxYoYxYjHDwPt33yPqexaDXeeNY/JtHR9laej1bl1b2Fo335xp54UA+aVitVJbWwyZ30GAOzw6ighuI4YmU+dOze/Yb2RDQ/FAvFuXFrbNSnfNg28j0HCsvwjw89mVqw/Q7/+4lBYv3W+68jxx2S6D4Owii3y1EJg5extNfHS2Kd8tbexwg+BMNQ0SO5XA69NWSxetRfNG0mlDJYTgQhHCflcS4OXQZOOd2vlICYJz5emEQodDYPdeucViokUvtl0GwdlFFvlqJ5CTW6S9DFULAMFVJYLvniFwuugC8ctJBsE5qTVQFssJFEFwljNFhiDgGgK4wrmmqVBQLxCA4LzQiqhDtQRKz16udp+OHRCcDurwqYyA01ZRguCUNT0c6SBQaPMMbqN1guCMEsPxriJw/IS9IROMwoDgjBLD8a4icOz4OeIQ504xCM4pLYFy2Ebg40922pa30YwhOKPEcLzrCPAVbq5Yd9AJBsE5oRVQBtsJLFi0m3ZmHbfdTygHEFwoQtjvGQJ/emMFvfXORq31geC04odz1QTWrD9E//a7L22LWRKqPr4JIhQKBPb7h0CeiDv56hsrqV+fBGodH/ndKyrwbjcFCM5uwsjfkQQ4avf6TXnKy4ZbSuXI4dDPBCA4P7c+6q6cAASnHDkc+pkABOfn1kfdlROA4JQjh0M/E4Dg/Nz6qLtyAhCccuRw6GcCEJyfWx91V04AglOOHA79TACC83Pro+7KCUBwypHDoZ8JQHB+bn3UXTkBCE45cjj0MwEIzs+tj7orJwDBKUcOh34mAMH5ufVRd+UEIDjlyOHQzwQgOD+3PuqunAAEpxw5HPqZAATn59ZH3ZUTgOCUI4dDPxOA4Pzc+qi7cgIQnHLkcOhnAhCcn1sfdVdOAIJTjhwO/UwAgvNz66PuyglAcMqRw6GfCUBwfm591F05AQhOOXI49DMBCM7PrY+6KycAwSlHDod+JvD/XErZwkFLYtAAAAAASUVORK5CYII=;" parent="7" vertex="1">
                    <mxGeometry x="200" y="200" width="81" height="81" as="geometry"/>
                </mxCell>
                <mxCell id="14" value="Self-managed EC2" style="sketch=0;points=[[0,0,0],[0.25,0,0],[0.5,0,0],[0.75,0,0],[1,0,0],[0,1,0],[0.25,1,0],[0.5,1,0],[0.75,1,0],[1,1,0],[0,0.25,0],[0,0.5,0],[0,0.75,0],[1,0.25,0],[1,0.5,0],[1,0.75,0]];outlineConnect=0;fontColor=#232F3E;gradientColor=#F78E04;gradientDirection=north;fillColor=#D05C17;strokeColor=#ffffff;dashed=0;verticalLabelPosition=bottom;verticalAlign=top;align=center;html=1;fontSize=12;fontStyle=0;aspect=fixed;shape=mxgraph.aws4.resourceIcon;resIcon=mxgraph.aws4.ec2;" parent="7" vertex="1">
                    <mxGeometry x="330" y="200" width="78" height="78" as="geometry"/>
                </mxCell>
                <mxCell id="15" value="Managed EC2" style="sketch=0;points=[[0,0,0],[0.25,0,0],[0.5,0,0],[0.75,0,0],[1,0,0],[0,1,0],[0.25,1,0],[0.5,1,0],[0.75,1,0],[1,1,0],[0,0.25,0],[0,0.5,0],[0,0.75,0],[1,0.25,0],[1,0.5,0],[1,0.75,0]];outlineConnect=0;fontColor=#232F3E;gradientColor=#F78E04;gradientDirection=north;fillColor=#D05C17;strokeColor=#ffffff;dashed=0;verticalLabelPosition=bottom;verticalAlign=top;align=center;html=1;fontSize=12;fontStyle=0;aspect=fixed;shape=mxgraph.aws4.resourceIcon;resIcon=mxgraph.aws4.ec2;" parent="7" vertex="1">
                    <mxGeometry x="330" y="80" width="78" height="78" as="geometry"/>
                </mxCell>
                <mxCell id="16" value="" style="shape=mxgraph.mockup.containers.marginRect;rectMarginTop=10;strokeColor=#666666;strokeWidth=1;dashed=0;rounded=1;arcSize=5;recursiveResize=0;fillColor=none;" parent="7" vertex="1">
                    <mxGeometry x="160" y="40" width="290" height="290" as="geometry"/>
                </mxCell>
                <mxCell id="17" value="Choose One" style="shape=rect;strokeColor=none;fillColor=#008cff;strokeWidth=1;dashed=0;rounded=1;arcSize=20;fontColor=#ffffff;fontSize=17;spacing=2;spacingTop=-2;align=left;autosize=1;spacingLeft=4;resizeWidth=0;resizeHeight=0;perimeter=none;" parent="16" vertex="1">
                    <mxGeometry x="5" width="120" height="30" as="geometry"/>
                </mxCell>
                <mxCell id="18" value="&lt;font style=&quot;font-size: 15px;&quot;&gt;Manage with:&lt;br&gt;&lt;ul&gt;&lt;li&gt;&lt;font style=&quot;font-size: 15px;&quot;&gt;kubectl&lt;/font&gt;&lt;/li&gt;&lt;li&gt;&lt;font style=&quot;font-size: 15px;&quot;&gt;eksktl&lt;/font&gt;&lt;/li&gt;&lt;li&gt;&lt;font style=&quot;font-size: 15px;&quot;&gt;AWS CLI&lt;/font&gt;&lt;/li&gt;&lt;li&gt;&lt;font style=&quot;font-size: 15px;&quot;&gt;AWS CDK&lt;/font&gt;&lt;/li&gt;&lt;li&gt;&lt;font style=&quot;font-size: 15px;&quot;&gt;AWS Console&lt;/font&gt;&lt;/li&gt;&lt;li&gt;&lt;font style=&quot;font-size: 15px;&quot;&gt;Terraform&lt;/font&gt;&lt;/li&gt;&lt;li&gt;&lt;font style=&quot;font-size: 15px;&quot;&gt;Pulumi&lt;/font&gt;&lt;/li&gt;&lt;/ul&gt;&lt;/font&gt;" style="text;html=1;strokeColor=none;fillColor=none;align=left;verticalAlign=top;whiteSpace=wrap;rounded=0;fontColor=none;" parent="1" vertex="1">
                    <mxGeometry x="560" y="290" width="230" height="220" as="geometry"/>
                </mxCell>
            </root>
        </mxGraphModel>
    </diagram>
    <diagram id="Bq1okF8o6fIfDJO3R97q" name="Desired">
        <mxGraphModel dx="1104" dy="924" grid="1" gridSize="10" guides="1" tooltips="1" connect="1" arrows="1" fold="1" page="1" pageScale="1" pageWidth="1100" pageHeight="850" math="0" shadow="0">
            <root>
                <mxCell id="0"/>
                <mxCell id="1" parent="0"/>
                <mxCell id="uHMODyvPKHdJuRET9pee-1" value="VPC" style="points=[[0,0],[0.25,0],[0.5,0],[0.75,0],[1,0],[1,0.25],[1,0.5],[1,0.75],[1,1],[0.75,1],[0.5,1],[0.25,1],[0,1],[0,0.75],[0,0.5],[0,0.25]];outlineConnect=0;gradientColor=none;html=1;whiteSpace=wrap;fontSize=12;fontStyle=0;container=1;pointerEvents=0;collapsible=0;recursiveResize=0;shape=mxgraph.aws4.group;grIcon=mxgraph.aws4.group_vpc;strokeColor=#248814;fillColor=none;verticalAlign=top;align=left;spacingLeft=30;fontColor=#AAB7B8;dashed=0;" vertex="1" parent="1">
                    <mxGeometry x="141" y="40" width="760" height="430" as="geometry"/>
                </mxCell>
                <mxCell id="uHMODyvPKHdJuRET9pee-2" value="Public subnet" style="points=[[0,0],[0.25,0],[0.5,0],[0.75,0],[1,0],[1,0.25],[1,0.5],[1,0.75],[1,1],[0.75,1],[0.5,1],[0.25,1],[0,1],[0,0.75],[0,0.5],[0,0.25]];outlineConnect=0;gradientColor=none;html=1;whiteSpace=wrap;fontSize=12;fontStyle=0;container=1;pointerEvents=0;collapsible=0;recursiveResize=0;shape=mxgraph.aws4.group;grIcon=mxgraph.aws4.group_security_group;grStroke=0;strokeColor=#248814;fillColor=#E9F3E6;verticalAlign=top;align=left;spacingLeft=30;fontColor=#248814;dashed=0;" vertex="1" parent="uHMODyvPKHdJuRET9pee-1">
                    <mxGeometry x="200" y="40" width="130" height="130" as="geometry"/>
                </mxCell>
                <mxCell id="uHMODyvPKHdJuRET9pee-22" value="" style="outlineConnect=0;dashed=0;verticalLabelPosition=bottom;verticalAlign=top;align=center;html=1;shape=mxgraph.aws3.classic_load_balancer;fillColor=#F58534;gradientColor=none;aspect=fixed;" vertex="1" parent="uHMODyvPKHdJuRET9pee-2">
                    <mxGeometry x="9" y="36" width="34.5" height="36" as="geometry"/>
                </mxCell>
                <mxCell id="uHMODyvPKHdJuRET9pee-28" value="" style="sketch=0;html=1;dashed=0;whitespace=wrap;fillColor=#2875E2;strokeColor=#ffffff;points=[[0.005,0.63,0],[0.1,0.2,0],[0.9,0.2,0],[0.5,0,0],[0.995,0.63,0],[0.72,0.99,0],[0.5,1,0],[0.28,0.99,0]];verticalLabelPosition=bottom;align=center;verticalAlign=top;shape=mxgraph.kubernetes.icon;prIcon=pod" vertex="1" parent="uHMODyvPKHdJuRET9pee-2">
                    <mxGeometry x="59" y="25" width="50" height="48" as="geometry"/>
                </mxCell>
                <mxCell id="uHMODyvPKHdJuRET9pee-3" value="Private subnet" style="points=[[0,0],[0.25,0],[0.5,0],[0.75,0],[1,0],[1,0.25],[1,0.5],[1,0.75],[1,1],[0.75,1],[0.5,1],[0.25,1],[0,1],[0,0.75],[0,0.5],[0,0.25]];outlineConnect=0;gradientColor=none;html=1;whiteSpace=wrap;fontSize=12;fontStyle=0;container=1;pointerEvents=0;collapsible=0;recursiveResize=0;shape=mxgraph.aws4.group;grIcon=mxgraph.aws4.group_security_group;grStroke=0;strokeColor=#147EBA;fillColor=#E6F2F8;verticalAlign=top;align=left;spacingLeft=30;fontColor=#147EBA;dashed=0;" vertex="1" parent="uHMODyvPKHdJuRET9pee-1">
                    <mxGeometry x="400" y="40" width="130" height="130" as="geometry"/>
                </mxCell>
                <mxCell id="uHMODyvPKHdJuRET9pee-23" value="" style="outlineConnect=0;dashed=0;verticalLabelPosition=bottom;verticalAlign=top;align=center;html=1;shape=mxgraph.aws3.classic_load_balancer;fillColor=#F58534;gradientColor=none;aspect=fixed;" vertex="1" parent="uHMODyvPKHdJuRET9pee-3">
                    <mxGeometry x="9" y="36" width="34.5" height="36" as="geometry"/>
                </mxCell>
                <mxCell id="uHMODyvPKHdJuRET9pee-29" value="" style="sketch=0;html=1;dashed=0;whitespace=wrap;fillColor=#2875E2;strokeColor=#ffffff;points=[[0.005,0.63,0],[0.1,0.2,0],[0.9,0.2,0],[0.5,0,0],[0.995,0.63,0],[0.72,0.99,0],[0.5,1,0],[0.28,0.99,0]];verticalLabelPosition=bottom;align=center;verticalAlign=top;shape=mxgraph.kubernetes.icon;prIcon=pod" vertex="1" parent="uHMODyvPKHdJuRET9pee-3">
                    <mxGeometry x="59" y="30" width="50" height="48" as="geometry"/>
                </mxCell>
                <mxCell id="uHMODyvPKHdJuRET9pee-8" style="edgeStyle=none;html=1;" edge="1" parent="uHMODyvPKHdJuRET9pee-1" source="uHMODyvPKHdJuRET9pee-4" target="uHMODyvPKHdJuRET9pee-2">
                    <mxGeometry relative="1" as="geometry"/>
                </mxCell>
                <mxCell id="uHMODyvPKHdJuRET9pee-4" value="Route table&lt;br&gt;/28 (16 IPs)" style="sketch=0;outlineConnect=0;fontColor=#232F3E;gradientColor=none;strokeColor=#232F3E;fillColor=#ffffff;dashed=0;verticalLabelPosition=bottom;verticalAlign=top;align=center;html=1;fontSize=12;fontStyle=0;aspect=fixed;shape=mxgraph.aws4.resourceIcon;resIcon=mxgraph.aws4.route_table;" vertex="1" parent="uHMODyvPKHdJuRET9pee-1">
                    <mxGeometry x="235" y="200" width="60" height="60" as="geometry"/>
                </mxCell>
                <mxCell id="uHMODyvPKHdJuRET9pee-9" style="edgeStyle=none;html=1;" edge="1" parent="uHMODyvPKHdJuRET9pee-1" source="uHMODyvPKHdJuRET9pee-5" target="uHMODyvPKHdJuRET9pee-3">
                    <mxGeometry relative="1" as="geometry"/>
                </mxCell>
                <mxCell id="uHMODyvPKHdJuRET9pee-16" style="edgeStyle=none;html=1;" edge="1" parent="uHMODyvPKHdJuRET9pee-1" source="uHMODyvPKHdJuRET9pee-5" target="uHMODyvPKHdJuRET9pee-12">
                    <mxGeometry relative="1" as="geometry"/>
                </mxCell>
                <mxCell id="uHMODyvPKHdJuRET9pee-5" value="Route table&lt;br&gt;/28 (16 IPs)" style="sketch=0;outlineConnect=0;fontColor=#232F3E;gradientColor=none;strokeColor=#232F3E;fillColor=#ffffff;dashed=0;verticalLabelPosition=bottom;verticalAlign=top;align=center;html=1;fontSize=12;fontStyle=0;aspect=fixed;shape=mxgraph.aws4.resourceIcon;resIcon=mxgraph.aws4.route_table;" vertex="1" parent="uHMODyvPKHdJuRET9pee-1">
                    <mxGeometry x="435" y="200" width="60" height="60" as="geometry"/>
                </mxCell>
                <mxCell id="uHMODyvPKHdJuRET9pee-12" value="NAT gateway" style="sketch=0;outlineConnect=0;fontColor=#232F3E;gradientColor=none;strokeColor=#232F3E;fillColor=#ffffff;dashed=0;verticalLabelPosition=bottom;verticalAlign=top;align=center;html=1;fontSize=12;fontStyle=0;aspect=fixed;shape=mxgraph.aws4.resourceIcon;resIcon=mxgraph.aws4.nat_gateway;" vertex="1" parent="uHMODyvPKHdJuRET9pee-1">
                    <mxGeometry x="550" y="320" width="60" height="60" as="geometry"/>
                </mxCell>
                <mxCell id="uHMODyvPKHdJuRET9pee-15" style="edgeStyle=none;html=1;" edge="1" parent="uHMODyvPKHdJuRET9pee-1" source="uHMODyvPKHdJuRET9pee-13" target="uHMODyvPKHdJuRET9pee-14">
                    <mxGeometry relative="1" as="geometry"/>
                </mxCell>
                <mxCell id="uHMODyvPKHdJuRET9pee-13" value="" style="outlineConnect=0;dashed=0;verticalLabelPosition=bottom;verticalAlign=top;align=center;html=1;shape=mxgraph.aws3.iam;fillColor=#759C3E;gradientColor=none;" vertex="1" parent="uHMODyvPKHdJuRET9pee-1">
                    <mxGeometry x="650" y="30" width="42" height="81" as="geometry"/>
                </mxCell>
                <mxCell id="uHMODyvPKHdJuRET9pee-14" value="" style="sketch=0;outlineConnect=0;fontColor=#232F3E;gradientColor=none;fillColor=#BF0816;strokeColor=none;dashed=0;verticalLabelPosition=bottom;verticalAlign=top;align=center;html=1;fontSize=12;fontStyle=0;aspect=fixed;pointerEvents=1;shape=mxgraph.aws4.role;" vertex="1" parent="uHMODyvPKHdJuRET9pee-1">
                    <mxGeometry x="632" y="193" width="78" height="44" as="geometry"/>
                </mxCell>
                <mxCell id="uHMODyvPKHdJuRET9pee-11" value="Internet&#10;gateway" style="sketch=0;outlineConnect=0;fontColor=#232F3E;gradientColor=none;strokeColor=#232F3E;fillColor=#ffffff;dashed=0;verticalLabelPosition=bottom;verticalAlign=top;align=center;html=1;fontSize=12;fontStyle=0;aspect=fixed;shape=mxgraph.aws4.resourceIcon;resIcon=mxgraph.aws4.internet_gateway;" vertex="1" parent="uHMODyvPKHdJuRET9pee-1">
                    <mxGeometry x="-30" y="193" width="60" height="60" as="geometry"/>
                </mxCell>
                <mxCell id="uHMODyvPKHdJuRET9pee-17" value="" style="aspect=fixed;perimeter=ellipsePerimeter;html=1;align=center;shadow=0;dashed=0;spacingTop=3;image;image=img/lib/active_directory/internet_cloud.svg;" vertex="1" parent="1">
                    <mxGeometry x="696" y="530" width="105" height="66.15" as="geometry"/>
                </mxCell>
                <mxCell id="uHMODyvPKHdJuRET9pee-18" style="edgeStyle=none;html=1;" edge="1" parent="1" source="uHMODyvPKHdJuRET9pee-12" target="uHMODyvPKHdJuRET9pee-17">
                    <mxGeometry relative="1" as="geometry"/>
                </mxCell>
                <mxCell id="uHMODyvPKHdJuRET9pee-21" style="edgeStyle=none;html=1;exitX=1;exitY=1;exitDx=0;exitDy=0;" edge="1" parent="1" source="uHMODyvPKHdJuRET9pee-19" target="uHMODyvPKHdJuRET9pee-11">
                    <mxGeometry relative="1" as="geometry">
                        <mxPoint x="11" y="310" as="targetPoint"/>
                    </mxGeometry>
                </mxCell>
                <mxCell id="uHMODyvPKHdJuRET9pee-19" value="" style="aspect=fixed;perimeter=ellipsePerimeter;html=1;align=center;shadow=0;dashed=0;spacingTop=3;image;image=img/lib/active_directory/internet_cloud.svg;" vertex="1" parent="1">
                    <mxGeometry x="31" y="152.6" width="75" height="47.25" as="geometry"/>
                </mxCell>
            </root>
        </mxGraphModel>
    </diagram>
</mxfile>